<svg width="74" height="73" viewBox="0 0 74 73" fill="none" xmlns="http://www.w3.org/2000/svg">
<path d="M58.2917 33.4584H40.0417V15.2084C40.0417 14.4017 39.7212 13.628 39.1508 13.0576C38.5804 12.4871 37.8067 12.1667 37 12.1667C36.1933 12.1667 35.4196 12.4871 34.8492 13.0576C34.2788 13.628 33.9583 14.4017 33.9583 15.2084V33.4584H15.7083C14.9016 33.4584 14.128 33.7788 13.5576 34.3492C12.9871 34.9197 12.6667 35.6933 12.6667 36.5C12.6667 37.3067 12.9871 38.0804 13.5576 38.6508C14.128 39.2212 14.9016 39.5417 15.7083 39.5417H33.9583V57.7917C33.9583 58.5984 34.2788 59.372 34.8492 59.9425C35.4196 60.5129 36.1933 60.8334 37 60.8334C37.8067 60.8334 38.5804 60.5129 39.1508 59.9425C39.7212 59.372 40.0417 58.5984 40.0417 57.7917V39.5417H58.2917C59.0984 39.5417 59.872 39.2212 60.4425 38.6508C61.0129 38.0804 61.3333 37.3067 61.3333 36.5C61.3333 35.6933 61.0129 34.9197 60.4425 34.3492C59.872 33.7788 59.0984 33.4584 58.2917 33.4584Z" fill="white" fill-opacity="0.8"/>
</svg>
